<svg id="Layer_1" data-name="Layer 1" xmlns="http://www.w3.org/2000/svg" viewBox="0 0 799.77 207.65">
<path d="M103.83,0A103.83,103.83,0,1,0,207.65,103.82,103.95,103.95,0,0,0,103.83,0Zm0,184.44h0A80.62,80.62,0,1,1,179.89,77.37L96.63,99.71V125.8l57-15.31,30.7-8.24c0,.53.07,1,.07,1.57A80.7,80.7,0,0,1,103.83,184.44Z" fill="#fff"/>
<polygon points="96.63 156.24 153.67 140.93 153.67 114.84 96.63 130.15 96.63 156.24" fill="#fff"/>
<polygon points="238.28 121.87 246.22 121.87 246.22 107.9 263.44 107.9 263.44 100.68 246.22 100.68 246.22 93 265.76 93 265.76 85.78 238.28 85.78 238.28 121.87"/>
<path d="M296.32,106.45c0,5.72-2.94,8.66-7.78,8.66s-7.79-3-7.79-8.92V85.78h-7.93V106.4c0,10.62,5.92,16,15.61,16s15.83-5.36,15.83-16.29V85.78h-7.94Z"/>
<path d="M325.4,100.27c-6.24-1.6-7.78-2.37-7.78-4.75v-.1c0-1.75,1.6-3.14,4.64-3.14a17,17,0,0,1,9.38,3.55l4.12-6a20.93,20.93,0,0,0-13.4-4.59c-7.37,0-12.63,4.34-12.63,10.88v.11c0,7.16,4.69,9.17,12,11,6,1.54,7.27,2.57,7.27,4.59v.1c0,2.11-2,3.4-5.21,3.4A16.52,16.52,0,0,1,313,111l-4.69,5.62a23,23,0,0,0,15.31,5.77c7.78,0,13.25-4,13.25-11.18v-.11C336.85,104.8,332.72,102.18,325.4,100.27Z"/>
<rect x="345.4" y="85.78" width="7.94" height="36.09"/>
<path d="M381.28,85.16h-.58a18.67,18.67,0,0,0-18.65,18.67v.11c0,.24,0,.48,0,.72a18.49,18.49,0,0,0,19.12,17.84h.58a18.66,18.66,0,0,0,18.65-18.66v-.11c0-.24,0-.48,0-.72A18.51,18.51,0,0,0,381.28,85.16Zm0,30h-.35a11,11,0,0,1-10.58-11.34v-.1c0-.16,0-.33,0-.49a10.8,10.8,0,0,1,10.84-10.75h.35a11,11,0,0,1,10.57,11.33v.11c0,.16,0,.32,0,.49A10.77,10.77,0,0,1,381.28,115.16Z"/>
<polygon points="432.98 108 416.07 85.78 408.75 85.78 408.75 121.87 416.58 121.87 416.58 98.93 434.06 121.87 440.82 121.87 440.82 85.78 432.98 85.78 432.98 108"/>
<polygon points="486.54 117.9 475.97 85.68 473.91 85.68 463.34 117.9 452 85.78 449.01 85.78 462.1 122.12 464.26 122.12 474.83 90.78 485.4 122.12 487.57 122.12 500.66 85.78 497.88 85.78 486.54 117.9"/>
<path d="M524.12,85.17a18.15,18.15,0,0,0-17.64,18.65v.11q0,.45,0,.9a18.15,18.15,0,0,0,36.29-1v-.1c0-.3,0-.6,0-.91A18.15,18.15,0,0,0,524.12,85.17Zm.56,34.89h-.44a15.62,15.62,0,0,1-15-16.23v-.1c0-.19,0-.38,0-.57a15.43,15.43,0,0,1,15.32-15.56H525a15.61,15.61,0,0,1,15,16.22v.11c0,.19,0,.38,0,.57A15.43,15.43,0,0,1,524.68,120.06Z"/>
<path d="M578.35,96.14V96a9.52,9.52,0,0,0-2.74-6.7,14.2,14.2,0,0,0-10.15-3.56H550.3v36.09H553v-15h11.81l11.49,15h3.41l-11.91-15.42C573.86,105.63,578.35,102.17,578.35,96.14ZM553,104.49V88.26H565.3c6.55,0,10.37,3,10.37,7.88v.11c0,5.2-4.49,8.24-10.52,8.24Z"/>
<polygon points="591.54 85.78 588.86 85.78 588.86 121.87 612.73 121.87 612.73 119.39 591.54 119.39 591.54 85.78"/>
<path d="M634.07,85.78h-12v36.09h12c11.34,0,19.17-7.89,19.17-18.05v-.1C653.24,93.57,645.41,85.78,634.07,85.78Zm16.39,18.15c0,.42,0,.84,0,1.27a15.31,15.31,0,0,1-16.35,14.19h-9.34V88.26h9.34a11,11,0,0,1,1.15,0,15.41,15.41,0,0,1,15.24,15.59Z"/>
<polygon points="696.59 117.9 686.02 85.68 683.96 85.68 673.39 117.9 662.05 85.78 659.06 85.78 672.16 122.12 674.32 122.12 684.89 90.78 695.46 122.12 697.62 122.12 710.72 85.78 707.93 85.78 696.59 117.9"/>
<rect x="720.3" y="85.78" width="2.68" height="36.09"/>
<path d="M744.48,85.78h-12v36.09h12c11.35,0,19.18-7.89,19.18-18.05v-.1C763.66,93.57,755.83,85.78,744.48,85.78Zm16.4,18.15c0,.42,0,.85,0,1.27a15.32,15.32,0,0,1-16.36,14.19h-9.33V88.26h9.33a11.23,11.23,0,0,1,1.16,0,15.41,15.41,0,0,1,15.24,15.59Z"/>
<polygon points="776.75 119.39 776.75 104.91 797.42 104.91 797.42 102.43 776.75 102.43 776.75 88.26 799.74 88.26 799.74 85.78 774.07 85.78 774.07 121.87 800 121.87 800 119.39 776.75 119.39"/>
</svg>