<?xml version="1.0" encoding="UTF-8"?>
<svg width="279px" height="73px" viewBox="0 0 279 73" version="1.1" xmlns="http://www.w3.org/2000/svg" xmlns:xlink="http://www.w3.org/1999/xlink">
    <title>Logo</title>
    <g id="Member" stroke="none" stroke-width="1" fill="none" fill-rule="evenodd">
        <g id="Components" transform="translate(-160.000000, -37.000000)" fill-rule="nonzero">
            <g id="Logo" transform="translate(160.000000, 37.000000)">
                <path d="M36.0984,0 C16.1713075,0.0229244892 0.0229244892,16.1713075 0,36.0984 C0.0229795829,56.0254534 16.1713465,72.1737756 36.0984,72.1967 C56.0256484,72.1737751 72.1740959,56.0251487 72.1968,36.0979 C72.1736,16.1710028 56.0252975,0.0229239459 36.0984,0 Z M36.0984,64.1282 C20.6249179,64.1111703 8.08542967,51.5716821 8.0684,36.0982 C8.08542967,20.6247179 20.6249179,8.08522967 36.0984,8.0682 C48.0199125,8.08823602 58.6267658,15.6404509 62.5461,26.8993 L33.5961,34.6693 L33.5961,43.7393 L53.4303,38.4158 L64.101,35.5518 C64.1046,35.7353 64.1286,35.9134 64.1286,36.0978 C64.111515,51.5713211 51.5719212,64.1107806 36.0984,64.1282 L36.0984,64.1282 Z" id="Shape" fill="#66CC66"></path>
                <polygon id="Path" fill="#66CC66" points="33.596 54.3215 53.43 48.9975 53.43 39.9275 33.596 45.2515"></polygon>
                <polygon id="Path" fill="#000000" points="82.8465 29.8246 92.3998 29.8246 92.3998 32.3337 85.6066 32.3337 85.6066 35.0044 91.5931 35.0044 91.5931 37.5144 85.6066 37.5144 85.6066 42.3716 82.8466 42.3716"></polygon>
                <path d="M94.8539,36.9942 L94.8539,29.8242 L97.6139,29.8242 L97.6139,36.9218 C97.6139,38.9654 98.6355,40.0227 100.3202,40.0227 C102.0049,40.0227 103.0268,39.001 103.0268,37.0116 L103.0268,29.8246 L105.7868,29.8246 L105.7868,36.9046 C105.7868,40.7046 103.6541,42.5684 100.2844,42.5684 C96.9147,42.5684 94.8539,40.6865 94.8539,36.9942 Z" id="Path" fill="#000000"></path>
                <path d="M107.1869,40.5428 L108.8181,38.5894 C109.841465,39.5336186 111.172402,40.0748822 112.5643,40.1129 C113.6932,40.1129 114.3743,39.6649 114.3743,38.9298 L114.3743,38.8938 C114.3743,38.1947 113.9443,37.8365 111.8469,37.2986 C109.32,36.6534 107.6887,35.9544 107.6887,33.463 L107.6887,33.4274 C107.6887,31.151 109.5171,29.6453 112.0801,29.6453 C113.771836,29.6179278 115.420032,30.1821343 116.7401,31.2405 L115.3065,33.32 C114.368912,32.5877334 113.231507,32.1566393 112.0441,32.0835 C110.9869,32.0835 110.4311,32.5672 110.4311,33.1767 L110.4311,33.2124 C110.4311,34.0369 110.9687,34.3056 113.1374,34.8614 C115.6826,35.5248 117.1167,36.4388 117.1167,38.6253 L117.1167,38.6613 C117.1167,41.1527 115.2167,42.5507512 112.5104,42.5507512 C110.54956,42.5577148 108.654685,41.8430122 107.1869,40.5428 L107.1869,40.5428 Z" id="Path" fill="#000000"></path>
                <polygon id="Path" fill="#000000" points="120.0909 29.8246 122.8509 29.8246 122.8509 42.3711 120.0909 42.3711"></polygon>
                <path d="M125.879437,36.1337 L125.879437,36.0981 C125.878658,34.3425502 126.589273,32.6615929 127.849112,31.4389889 C129.108951,30.2163848 130.810465,29.5565053 132.5652,29.61 C134.312385,29.5496056 136.008802,30.2034543 137.263487,31.420857 C138.518172,32.6382598 139.22288,34.3141882 139.215262,36.0624 L139.215262,36.0985 C139.216125,37.8540316 138.505561,39.5349971 137.245743,40.7575976 C135.985926,41.9801981 134.284415,42.6400516 132.5297,42.5865 C130.782427,42.6468958 129.085928,41.992999 127.831199,40.775515 C126.576471,39.558031 125.871766,37.8819995 125.879437,36.1337 L125.879437,36.1337 Z M136.3289,36.1337 L136.3289,36.0981 C136.364509,35.0666062 135.980312,34.064762 135.26413,33.3215724 C134.547948,32.5783827 133.561005,32.1573806 132.5289,32.1547703 C131.504296,32.1507276 130.522597,32.5658573 129.811765,33.3037922 C129.100932,34.041727 128.722809,35.0382647 128.7652,36.062 L128.7652,36.0981 C128.729701,37.1295165 129.11395,38.131246 129.830123,38.8743319 C130.546296,39.6174178 131.533176,40.0383429 132.5652,40.0409297 C133.589804,40.0449724 134.571503,39.6298427 135.282335,38.8919078 C135.993168,38.153973 136.371291,37.1574353 136.3289,36.1337 L136.3289,36.1337 Z" id="Shape" fill="#000000"></path>
                <polygon id="Path" fill="#000000" points="142.1163 29.8246 144.6615 29.8246 150.5403 37.55 150.5403 29.8246 153.2652 29.8246 153.2652 42.3711 150.9172 42.3711 144.8404 34.3952 144.8404 42.3711 142.1163 42.3711"></polygon>
                <polygon id="Path" fill="#000000" points="156.1128 29.8246 157.1522 29.8246 161.0959 40.9909 164.7699 29.789 165.4872 29.789 169.1612 40.9909 173.1045 29.8246 174.0719 29.8246 169.5198 42.4606 168.767 42.4606 165.0921 31.5631 161.4181 42.4606 160.6652 42.4606"></polygon>
                <path d="M176.0952,36.1337 L176.0952,36.0981 C176.03131,33.8066107 177.214991,31.6606637 179.187291,30.492314 C181.15959,29.3239642 183.610333,29.3169528 185.589285,30.4739982 C187.568237,31.6310436 188.764177,33.7701827 188.7134,36.062 L188.7134,36.0981 C188.777209,38.3895983 187.593446,40.5355091 185.621096,41.7037871 C183.648747,42.8720651 181.197995,42.8789794 179.219085,41.7218492 C177.240175,40.564719 176.044322,38.4255219 176.0952,36.1337 L176.0952,36.1337 Z M187.7452,36.1337 L187.7452,36.0981 C187.803825,34.6331767 187.267522,33.2068091 186.258263,32.143402 C185.249005,31.0799948 183.852586,30.4699455 182.3866,30.452 C180.92783,30.463064 179.53634,31.0671404 178.532139,32.1253052 C177.527939,33.18347 176.99746,34.604648 177.0627,36.062 L177.0627,36.0981 C177.00421,37.5630927 177.540697,38.9894674 178.550136,40.0527917 C179.559574,41.116116 180.956147,41.7259913 182.4222,41.7437 C183.880885,41.7326178 185.272276,41.1285044 186.276329,40.0703158 C187.280382,39.0121272 187.810664,37.5909578 187.7452,36.1337 L187.7452,36.1337 Z" id="Shape" fill="#000000"></path>
                <path d="M191.3322,29.8246 L196.6014,29.8246 C197.894943,29.7583088 199.162814,30.202466 200.1322,31.0615 C200.743449,31.6826891 201.084846,32.5200104 201.0822,33.3915 L201.0822,33.4275 C201.0822,35.5246 199.5222,36.7251 197.4081,37.0121 L201.5481,42.3712 L200.3652,42.3712 L196.369,37.1732 L192.2639,37.1732 L192.2639,42.3712 L191.3322,42.3712 L191.3322,29.8246 Z M196.4938,36.3308 C198.5908,36.3308 200.1504,35.2735 200.1504,33.463 L200.1504,33.4274 C200.1504,31.7424 198.8236,30.6851 196.5476,30.6851 L192.2639,30.6851 L192.2639,36.3308 L196.4938,36.3308 Z" id="Shape" fill="#000000"></path>
                <polygon id="Path" fill="#000000" points="204.7373 29.8246 205.669 29.8246 205.669 41.5106 213.0352 41.5106 213.0352 42.3711 204.7373 42.3711"></polygon>
                <path d="M216.2788,29.8246 L220.4552,29.8246 C224.3984,29.8246 227.1225,32.5313 227.1225,36.062 L227.1225,36.0981 C227.1225,39.6288 224.3984,42.3711 220.4552,42.3711 L216.2792,42.3711 L216.2788,29.8246 Z M217.2106,30.6851 L217.2106,41.5106 L220.4552,41.5106 C221.940372,41.6157751 223.401733,41.0942796 224.484786,40.0726182 C225.56784,39.0509569 226.173629,37.622477 226.1552,36.1337 L226.1552,36.0981 C226.17245,34.6065982 225.567609,33.1753237 224.486009,32.1481835 C223.40441,31.1210432 221.943823,30.5908867 220.4552,30.6851 L217.2106,30.6851 Z" id="Shape" fill="#000000"></path>
                <polygon id="Path" fill="#000000" points="229.1463 29.8246 230.1858 29.8246 234.129 40.9909 237.8031 29.789 238.5203 29.789 242.1944 40.9909 246.1376 29.8246 247.1058 29.8246 242.553 42.4606 241.8002 42.4606 238.1261 31.5631 234.452 42.4606 233.6992 42.4606"></polygon>
                <polygon id="Path" fill="#000000" points="250.4371 29.8246 251.3689 29.8246 251.3689 42.3711 250.4371 42.3711"></polygon>
                <path d="M254.6699,29.8246 L258.8459,29.8246 C262.7892,29.8246 265.5132,32.5313 265.5132,36.062 L265.5132,36.0981 C265.5132,39.6288 262.7892,42.3711 258.8459,42.3711 L254.6699,42.3711 L254.6699,29.8246 Z M255.6017,30.6851 L255.6017,41.5106 L258.8459,41.5106 C260.331079,41.6158061 261.792459,41.094321 262.875519,40.0726529 C263.95858,39.0509848 264.564359,37.6224864 264.5459,36.1337 L264.5459,36.0981 C264.56318,34.6065889 263.958349,33.1752963 262.876742,32.1481494 C261.795135,31.1210025 260.334531,30.5908561 258.8459,30.6851 L255.6017,30.6851 Z" id="Shape" fill="#000000"></path>
                <polygon id="Path" fill="#000000" points="269.1327 29.8246 278.0586 29.8246 278.0586 30.6851 270.0645 30.6851 270.0645 35.614 277.2519 35.614 277.2519 36.474 270.0645 36.474 270.0645 41.5105 278.148 41.5105 278.148 42.371 269.1327 42.371"></polygon>
            </g>
        </g>
    </g>
</svg>